<svg width="75" height="17" viewBox="0 0 75 17" fill="none" xmlns="http://www.w3.org/2000/svg">
<path d="M2.0262 8.46475C2.0262 11.764 4.70076 14.4386 8 14.4386C10.3731 14.4386 12.2969 12.5147 12.2969 10.1416C12.2969 7.76847 10.3731 5.84454 8 5.84454C5.62686 5.84454 3.70306 7.76834 3.70306 10.1415C3.70306 11.3552 4.20626 12.4514 5.01542 13.2328C3.42977 12.2381 2.4178 10.4713 2.53332 8.46475C2.70408 5.49856 5.34464 3.81846 8 3.81846C11.4922 3.81846 14.3231 6.64943 14.3231 10.1416C14.3231 13.6338 11.4922 16.4648 8 16.4648C3.58172 16.4648 0 12.883 0 8.46475C0 4.04647 3.58172 0.464844 8 0.464844C12.4183 0.464844 16 4.04657 16 8.46484C16 11.2367 14.5903 13.6793 12.4487 15.1149C13.8135 13.8931 14.6232 12.3314 14.7625 10.1416C15.0298 5.93795 11.8602 2.49095 8 2.49095C4.70076 2.49095 2.0262 5.16551 2.0262 8.46475Z" fill="#080D09"/>
<path d="M51.237 1.5V12.4329H49.0724V1.5H51.237Z" fill="#080D09"/>
<path fill-rule="evenodd" clip-rule="evenodd" d="M53.0752 11.9853C53.579 12.3718 54.2174 12.565 54.9903 12.565C55.5822 12.565 56.0567 12.4549 56.4138 12.2348C56.7708 12.0147 57.0521 11.7163 57.2576 11.3396H57.2869V12.4329H59.4001V7.17925C59.4001 6.35255 59.1091 5.7044 58.527 5.2348C57.9448 4.76031 57.123 4.52306 56.0616 4.52306C55.0001 4.52306 54.166 4.76031 53.5595 5.2348C52.9529 5.7044 52.6251 6.33788 52.5762 7.13522H54.6087C54.6332 6.83683 54.7701 6.59469 55.0196 6.40881C55.2691 6.22292 55.5944 6.12998 55.9955 6.12998C56.3917 6.12998 56.7024 6.22048 56.9274 6.40147C57.1524 6.58246 57.2649 6.81481 57.2649 7.09853V7.1499C57.2649 7.39937 57.123 7.5608 56.8393 7.63417C56.5556 7.70755 56.0591 7.78092 55.3498 7.8543C54.8117 7.90321 54.3128 8.00349 53.853 8.15514C53.3931 8.30678 53.0238 8.54892 52.745 8.88155C52.4662 9.20929 52.3268 9.66422 52.3268 10.2463C52.3268 11.0192 52.5762 11.5989 53.0752 11.9853ZM56.8247 10.6499C56.5214 10.9238 56.1105 11.0608 55.5919 11.0608C55.23 11.0608 54.9389 10.985 54.7188 10.8333C54.5035 10.6768 54.3959 10.4616 54.3959 10.1876C54.3959 9.87946 54.5231 9.64955 54.7775 9.4979C55.0367 9.34137 55.3523 9.23375 55.724 9.17505C56.0713 9.12125 56.3868 9.06744 56.6706 9.01363C56.9543 8.95493 57.1573 8.89133 57.2796 8.82285V9.60063C57.2796 10.0213 57.1279 10.3711 56.8247 10.6499Z" fill="#080D09"/>
<path d="M60.6293 15.5V13.7904H61.6125C61.8718 13.7904 62.0626 13.7268 62.1849 13.5996C62.312 13.4773 62.427 13.2669 62.5297 12.9686L62.7425 12.4036L59.7635 4.68449H62.0308L63.3295 8.51468C63.4176 8.7935 63.5032 9.07233 63.5863 9.35115C63.6744 9.62998 63.76 9.90881 63.8431 10.1876C63.9263 9.90881 64.0119 9.62998 64.1 9.35115C64.188 9.06744 64.276 8.78861 64.3641 8.51468L65.6702 4.68449H67.9155L64.5035 13.6289C64.2589 14.2746 63.941 14.7467 63.5496 15.0451C63.1583 15.3484 62.6618 15.5 62.0601 15.5H60.6293Z" fill="#080D09"/>
<path d="M68.5503 12.4329V10.9801L72.3952 6.42348V6.40147H68.5503V4.68449H74.9413V6.21803L71.1772 10.7013V10.7233H75V12.4329H68.5503Z" fill="#080D09"/>
<path d="M43.6021 4.68449V12.4329H45.7667V8.23585C45.7667 7.65374 45.911 7.21104 46.1996 6.90776C46.4931 6.60447 46.8624 6.45283 47.3076 6.45283C47.4886 6.45283 47.6696 6.45772 47.8506 6.4675C48.0316 6.47729 48.1612 6.48463 48.2395 6.48952V4.6478C48.1514 4.6478 48.0536 4.64535 47.946 4.64046C47.8432 4.63557 47.7283 4.63312 47.6011 4.63312C47.0875 4.63312 46.679 4.74563 46.3757 4.97065C46.0724 5.19567 45.8499 5.54053 45.708 6.00524H45.686V4.68449H43.6021Z" fill="#080D09"/>
<path fill-rule="evenodd" clip-rule="evenodd" d="M38.8509 12.609C38.0683 12.609 37.3859 12.4354 36.8038 12.0881C36.2266 11.7407 35.7765 11.2638 35.4537 10.6572C35.1357 10.0458 34.9767 9.34871 34.9767 8.56604C34.9767 7.77848 35.1382 7.07897 35.461 6.4675C35.7887 5.85604 36.2388 5.37666 36.8111 5.02935C37.3834 4.68204 38.0389 4.50839 38.7776 4.50839C39.5407 4.50839 40.2059 4.67959 40.7734 5.02201C41.3457 5.35954 41.7909 5.83159 42.1088 6.43816C42.4317 7.03983 42.5931 7.73445 42.5931 8.52201V9.10168H37.0826C37.1022 9.674 37.2709 10.1314 37.5889 10.4738C37.9068 10.8162 38.3495 10.9874 38.917 10.9874C39.3377 10.9874 39.6874 10.8969 39.9662 10.7159C40.25 10.5349 40.4407 10.2952 40.5386 9.99686H42.5124C42.4194 10.5105 42.2017 10.963 41.8593 11.3543C41.5169 11.7456 41.0864 12.0538 40.5679 12.2788C40.0494 12.499 39.4771 12.609 38.8509 12.609ZM37.0973 7.72222H40.5532C40.4994 7.23795 40.3185 6.85639 40.0103 6.57757C39.707 6.29385 39.3108 6.15199 38.8216 6.15199C38.3373 6.15199 37.9435 6.29385 37.6403 6.57757C37.337 6.85639 37.156 7.23795 37.0973 7.72222Z" fill="#080D09"/>
<path d="M26.7475 4.68449L29.6165 12.4329H32.0232L34.8995 4.68449H32.6543L31.3922 8.51468C31.2993 8.81796 31.2063 9.12369 31.1134 9.43187C31.0253 9.73515 30.9373 10.0409 30.8492 10.3491C30.7612 10.0409 30.6707 9.73515 30.5777 9.43187C30.4848 9.12369 30.3894 8.81796 30.2916 8.51468L29.0148 4.68449H26.7475Z" fill="#080D09"/>
<path fill-rule="evenodd" clip-rule="evenodd" d="M22.7154 12.609C21.9328 12.609 21.2455 12.4403 20.6536 12.1027C20.0666 11.7652 19.6068 11.2956 19.2741 10.6939C18.9464 10.0874 18.7825 9.37806 18.7825 8.56604C18.7825 7.75402 18.9464 7.04472 19.2741 6.43816C19.6068 5.83159 20.0666 5.35954 20.6536 5.02201C21.2455 4.67959 21.9328 4.50839 22.7154 4.50839C23.503 4.50839 24.1903 4.67959 24.7773 5.02201C25.3692 5.35954 25.829 5.83159 26.1567 6.43816C26.4894 7.04472 26.6557 7.75402 26.6557 8.56604C26.6557 9.37317 26.4894 10.08 26.1567 10.6866C25.829 11.2932 25.3692 11.7652 24.7773 12.1027C24.1903 12.4403 23.503 12.609 22.7154 12.609ZM22.7154 10.8553C23.2437 10.8553 23.6693 10.6548 23.9922 10.2537C24.315 9.84766 24.4764 9.28512 24.4764 8.56604C24.4764 7.84207 24.315 7.27708 23.9922 6.87107C23.6693 6.46506 23.2437 6.26205 22.7154 6.26205C22.192 6.26205 21.7689 6.46506 21.446 6.87107C21.1232 7.27708 20.9618 7.84207 20.9618 8.56604C20.9618 9.28512 21.1232 9.84766 21.446 10.2537C21.7689 10.6548 22.192 10.8553 22.7154 10.8553Z" fill="#080D09"/>
</svg>
